<svg height="512pt" viewBox="-30 0 512 512" width="512pt" xmlns="http://www.w3.org/2000/svg" xmlns:xlink="http://www.w3.org/1999/xlink"><linearGradient id="a" gradientUnits="userSpaceOnUse" x1="-.000097" x2="451.999903" y1="256" y2="256"><stop offset="0" stop-color="#89d8c2"/><stop offset="1" stop-color="#FDD544"/></linearGradient><path d="m416.15625 256.011719c18.527344-33.183594 31.859375-74.753907 35.023438-98.742188 1.75-13.253906.726562-22.285156-3.3125-29.273437-4.199219-7.269532-12.019532-12.871094-25.363282-18.171875-22.945312-9.109375-64.515625-17.792969-101.46875-18.375-15.410156-25.839844-39.351562-54.601563-59.320312-72.421875-14.945313-13.335938-25.625-19.027344-35.714844-19.027344-8.390625 0-17.15625 3.96875-28.414062 12.867188-19.335938 15.285156-47.613282 46.898437-66.570313 78.554687-30.113281.414063-67.0625 6.769531-92.523437 15.15625-19.035157 6.273437-29.308594 12.675781-34.359376 21.414063-4.1992182 7.273437-5.144531 16.847656-3.066406 31.050781 3.585938 24.460937 16.824219 64.691406 34.777344 96.945312-18.527344 33.183594-31.859375 74.753907-35.023438 98.742188-1.75 13.253906-.726562 22.285156 3.3125 29.273437 4.199219 7.269532 12.019532 12.871094 25.363282 18.171875 23.035156 9.144531 64.667968 17.800781 101.472656 18.378907 15.4375 25.886718 39.390625 54.636718 59.316406 72.417968 14.945313 13.335938 25.625 19.027344 35.714844 19.027344 8.390625 0 17.15625-3.96875 28.414062-12.867188 19.335938-15.285156 47.609376-46.894531 66.570313-78.546874 30.214844-.417969 67.210937-6.824219 92.523437-15.164063 19.03125-6.273437 29.308594-12.675781 34.359376-21.414063 4.199218-7.273437 5.144531-16.847656 3.066406-31.050781-3.585938-24.460937-16.824219-64.695312-34.777344-96.945312zm-190.125-214.480469c23.011719 15.976562 67.914062 71.226562 73.355469 99.027344-21.222657-13.535156-46.402344-21.390625-73.386719-21.390625-7.835938 0-15.511719.671875-22.988281 1.941406-2.347657-6.375-7.207031-13.808594-17.210938-19.585937-3.222656-1.863282-6.792969-3.414063-10.621093-4.703126 12.25-17.449218 34.53125-44.011718 50.851562-55.289062zm-63.347656 93.199219c-29.785156 15.613281-53.144532 41.878906-64.980469 73.703125-2.097656-.359375-4.089844-.503906-5.933594-.503906-.003906 0-.011719 0-.015625 0-10.019531.003906-19.695312 4.125-29.175781 12.472656-8.96875-19.285156-20.855469-51.871094-22.464844-71.65625 25.5-12.007813 95.847657-23.171875 122.570313-14.015625zm-49.136719 244.878906c-21.160156-1.871094-55.445313-7.875-73.464844-16.40625 2.335938-27.9375 27.855469-94.691406 49.222657-113.121094-.082032 1.964844-.136719 3.933594-.136719 5.917969 0 33.144531 11.851562 63.574219 31.53125 87.277344-4.367188 5.21875-8.398438 13.167968-8.398438 24.765625 0 3.726562.441407 7.601562 1.246094 11.566406zm112.421875 90.859375c-23.011719-15.976562-67.914062-71.226562-73.355469-99.027344 21.222657 13.535156 46.402344 21.390625 73.386719 21.390625 7.832031 0 15.511719-.671875 22.988281-1.941406 2.34375 6.375 7.207031 13.808594 17.210938 19.585937 3.21875 1.863282 6.796875 3.410157 10.625 4.699219-12.164063 17.324219-34.480469 43.976563-50.855469 55.292969zm.03125-117.636719c-53.394531 0-96.832031-43.4375-96.832031-96.832031s43.4375-96.832031 96.832031-96.832031 96.832031 43.4375 96.832031 96.832031-43.4375 96.832031-96.832031 96.832031zm63.316406 24.4375c29.785156-15.613281 53.144532-41.875 64.980469-73.703125 2.097656.359375 4.089844.503906 5.933594.503906h.015625c10.019531-.003906 19.695312-4.125 29.175781-12.472656 8.96875 19.285156 20.855469 51.871094 22.464844 71.660156-25.5 12.003907-95.847657 23.171876-122.570313 14.011719zm73.378906-115.351562c.082032-1.964844.136719-3.933594.136719-5.917969 0-33.144531-11.851562-63.574219-31.53125-87.277344 4.367188-5.21875 8.398438-13.167968 8.398438-24.765625 0-3.726562-.441407-7.601562-1.246094-11.566406 21.242187 1.875 55.488281 7.894531 73.464844 16.40625-2.335938 27.9375-27.855469 94.691406-49.222657 113.121094zm0 0" fill="url(#a)"/></svg>