<svg id="Capa_1" enable-background="new 0 0 512 512" height="512" viewBox="0 0 512 512" width="512" xmlns="http://www.w3.org/2000/svg"><g fill="rgba(243, 246, 220, 0.8)"  id="Volunteering_1_"><g><path d="m331 481h-150v-45c0-41.355 33.645-75 75-75s75 33.645 75 75zm-120-30h90v-15c0-24.813-20.187-45-45-45s-45 20.187-45 45z"/></g><g><path d="m256 361c-24.813 0-45-20.187-45-45s20.187-45 45-45 45 20.187 45 45-20.187 45-45 45zm0-60c-8.271 0-15 6.729-15 15s6.729 15 15 15 15-6.729 15-15-6.729-15-15-15z"/></g><g><path d="m512 481h-150v-45c0-41.355 33.645-75 75-75s75 33.645 75 75zm-120-30h90v-15c0-24.813-20.187-45-45-45s-45 20.187-45 45z"/></g><g><path d="m437 361c-24.813 0-45-20.187-45-45s20.187-45 45-45 45 20.187 45 45-20.187 45-45 45zm0-60c-8.271 0-15 6.729-15 15s6.729 15 15 15 15-6.729 15-15-6.729-15-15-15z"/></g><g><path d="m150 481h-150v-45c0-41.355 33.645-75 75-75s75 33.645 75 75zm-120-30h90v-15c0-24.813-20.187-45-45-45s-45 20.187-45 45z"/></g><g><path d="m75 361c-24.813 0-45-20.187-45-45s20.187-45 45-45 45 20.187 45 45-20.187 45-45 45zm0-60c-8.271 0-15 6.729-15 15s6.729 15 15 15 15-6.729 15-15-6.729-15-15-15z"/></g><g><path d="m241 241h-150v-45c0-41.355 33.645-75 75-75s75 33.645 75 75zm-120-30h90v-15c0-24.813-20.187-45-45-45s-45 20.187-45 45z"/></g><g><path d="m166 121c-24.813 0-45-20.187-45-45s20.187-45 45-45 45 20.187 45 45-20.187 45-45 45zm0-60c-8.271 0-15 6.729-15 15s6.729 15 15 15 15-6.729 15-15-6.729-15-15-15z"/></g><g><path d="m421 241h-150v-45c0-41.355 33.645-75 75-75s75 33.645 75 75zm-120-30h90v-15c0-24.813-20.187-45-45-45s-45 20.187-45 45z"/></g><g><path d="m346 121c-24.813 0-45-20.187-45-45s20.187-45 45-45 45 20.187 45 45-20.187 45-45 45zm0-60c-8.271 0-15 6.729-15 15s6.729 15 15 15 15-6.729 15-15-6.729-15-15-15z"/></g></g></svg>